<svg xmlns="http://www.w3.org/2000/svg" width="26.001" height="26.001" viewBox="0 0 26.001 26.001"><path d="M16.645,2.006a2.16,2.16,0,0,0-2.213,2.838l.893,2.668-5.088,1.7L9.383,6.66A2.158,2.158,0,0,0,5.289,8.029l.854,2.553-2.668.893a2.158,2.158,0,1,0,1.369,4.094l2.668-.893,1.7,5.088-2.553.854a2.158,2.158,0,0,0,1.369,4.094l2.553-.853.893,2.668a2.158,2.158,0,1,0,4.094-1.369l-.893-2.668,5.088-1.7.854,2.555a2.159,2.159,0,0,0,4.1-1.369l-.855-2.555,2.668-.893a2.157,2.157,0,1,0-1.369-4.092l-2.668.893-1.7-5.088,2.553-.853a2.158,2.158,0,0,0-1.369-4.094l-2.553.854-.893-2.668A2.16,2.16,0,0,0,16.645,2.006Zm.049,9.6,1.7,5.088-5.088,1.7-1.7-5.088Z" transform="translate(-1.999 -1.999)"/></svg>