<svg xmlns="http://www.w3.org/2000/svg" width="26.982" height="24.242" viewBox="0 0 26.982 24.242"><g transform="translate(0 0)"><path d="M246.527,100a.527.527,0,1,0,.527.527A.527.527,0,0,0,246.527,100Zm0,0" transform="translate(-233.036 -94.73)"/><path d="M80.527,261.054a.527.527,0,1,0-.527-.527A.527.527,0,0,0,80.527,261.054Zm0,0" transform="translate(-75.784 -246.299)"/><path d="M17.707,0c-4.744,0-8.638,3.271-8.94,7.391C4.249,7.618,0,10.876,0,15.282a7.364,7.364,0,0,0,2.055,5.04,3.2,3.2,0,0,1-.847,3.02.527.527,0,0,0,.373.9,5.813,5.813,0,0,0,4.028-1.628,12.009,12.009,0,0,0,3.667.574c4.744,0,8.637-3.27,8.939-7.39a11.85,11.85,0,0,0,3.159-.562A5.813,5.813,0,0,0,25.4,16.863a.527.527,0,0,0,.373-.9,3.2,3.2,0,0,1-.847-3.02A7.364,7.364,0,0,0,26.982,7.9c0-4.579-4.576-7.9-9.275-7.9ZM9.275,22.133a10.653,10.653,0,0,1-3.611-.622.527.527,0,0,0-.584.134,4.755,4.755,0,0,1-2.365,1.4,4.262,4.262,0,0,0,.321-3.137.526.526,0,0,0-.129-.223,6.333,6.333,0,0,1-1.854-4.407c0-3.714,3.765-6.851,8.221-6.851,4.208,0,7.9,2.926,7.9,6.851,0,3.778-3.546,6.851-7.9,6.851Zm14.8-9.822a.528.528,0,0,0-.129.223,4.262,4.262,0,0,0,.321,3.137,4.754,4.754,0,0,1-2.365-1.4.527.527,0,0,0-.584-.134,10.382,10.382,0,0,1-3.1.609,7.543,7.543,0,0,0-2.848-5.257h6.874a.527.527,0,0,0,0-1.054H13.746A9.829,9.829,0,0,0,9.824,7.393c.3-3.539,3.723-6.339,7.883-6.339,4.456,0,8.221,3.137,8.221,6.851a6.333,6.333,0,0,1-1.854,4.407Zm0,0"/><path d="M127.167,260h-6.64a.527.527,0,1,0,0,1.054h6.64a.527.527,0,1,0,0-1.054Zm0,0" transform="translate(-113.676 -246.299)"/><path d="M89.275,320H80.527a.527.527,0,0,0,0,1.054h8.748a.527.527,0,1,0,0-1.054Zm0,0" transform="translate(-75.784 -303.137)"/><path d="M293.167,100h-6.64a.527.527,0,0,0,0,1.054h6.64a.527.527,0,1,0,0-1.054Zm0,0" transform="translate(-270.928 -94.73)"/></g></svg>