<svg xmlns="http://www.w3.org/2000/svg" width="23.778" height="25.984" viewBox="0 0 23.778 25.984"><g transform="translate(-11.643 -0.001)"><g transform="translate(11.643 0.001)"><path d="M35.4,16.166c-.075-.217-1.855-5.323-4.311-6.621-.147-.078-.3-.157-.459-.237a11.705,11.705,0,0,0,.492-6.344A3.869,3.869,0,0,0,27.438.006c-1.4.082-2.4,1.205-2.662,3a5.578,5.578,0,0,0-.016,1.557,9.958,9.958,0,0,0-.62.978L11.785,25.22a.514.514,0,0,0-.09.556l.116.209h.238a.544.544,0,0,0,.428-.274L26.688,7.874a15.194,15.194,0,0,0,2.973,1.847c-.439,1.358-1.021,2.847-1.71,4.484-1.891,4.5-1.01,8.214.322,9.062a.4.4,0,1,0,.432-.678c-.938-.6-1.768-3.9-.013-8.072.676-1.606,1.251-3.076,1.694-4.43l.327.169c2.176,1.15,3.91,6.122,3.926,6.172a.4.4,0,1,0,.76-.262ZM25.13,7.587l-.791.654.313-.978c.092-.287.264-.794.493-1.339a5.027,5.027,0,0,0,.668,1.065C25.508,7.27,25.252,7.487,25.13,7.587ZM26.4,6.424a4.1,4.1,0,0,1-.754-1.533c.389-.694.855-1.255,1.346-1.255a.715.715,0,0,1,.388.116.685.685,0,0,1,.33.554C27.744,4.888,27.072,5.73,26.4,6.424Zm3.5,2.517a13.683,13.683,0,0,1-2.709-1.7c.534-.69,1.579-2.2,1.44-3.31a1.3,1.3,0,0,0-.549-.928,1.439,1.439,0,0,0-.838-.272,2.62,2.62,0,0,0-1.725.919,5.186,5.186,0,0,1,.049-.528c.208-1.415.907-2.26,1.914-2.319.036,0,.073,0,.11,0a3.073,3.073,0,0,1,2.749,2.368A10.8,10.8,0,0,1,29.9,8.941Z" transform="translate(-11.643 -0.001)"/></g></g></svg>