<svg xmlns="http://www.w3.org/2000/svg" width="19.268" height="17.727" viewBox="0 0 19.268 17.727">
  <g id="comment" transform="translate(0 0)">
    <path id="Path_16" data-name="Path 16" d="M16.619-1.332H2.65A2.652,2.652,0,0,0,0,1.317V9.866a2.652,2.652,0,0,0,2.64,2.649v3.88l5.575-3.88h8.4a2.652,2.652,0,0,0,2.649-2.649V1.317a2.652,2.652,0,0,0-2.649-2.649Zm1.52,11.2a1.522,1.522,0,0,1-1.52,1.52H7.861L3.769,14.234V11.386H2.65a1.522,1.522,0,0,1-1.52-1.52V1.317A1.522,1.522,0,0,1,2.65-.2h13.97a1.522,1.522,0,0,1,1.52,1.52Zm0,0" transform="translate(-0.001 1.332)"/>
    <path id="Path_17" data-name="Path 17" d="M171.293,131.172h8.954V132.3h-8.954Zm0,0" transform="translate(-166.136 -127.183)"/>
    <path id="Path_18" data-name="Path 18" d="M171.293,211.172h8.954V212.3h-8.954Zm0,0" transform="translate(-166.136 -204.774)"/>
    <path id="Path_19" data-name="Path 19" d="M171.293,291.172h8.954V292.3h-8.954Zm0,0" transform="translate(-166.136 -282.366)"/>
  </g>
</svg>
