<svg xmlns="http://www.w3.org/2000/svg" width="16.554" height="16.554" viewBox="0 0 16.554 16.554">
  <path id="icons8-slack-50" d="M11.323,2A1.375,1.375,0,0,0,9.914,3.81l.568,1.7L7.243,6.592,6.7,4.967a1.374,1.374,0,0,0-2.606.872l.543,1.625-1.7.568a1.374,1.374,0,1,0,.872,2.606l1.7-.568,1.083,3.239-1.625.543a1.374,1.374,0,0,0,.872,2.606l1.625-.543.568,1.7a1.374,1.374,0,1,0,2.606-.872l-.568-1.7,3.239-1.084.543,1.626a1.375,1.375,0,0,0,2.608-.872l-.545-1.626,1.7-.568a1.374,1.374,0,1,0-.872-2.605l-1.7.568L13.961,7.243,15.586,6.7a1.374,1.374,0,0,0-.872-2.606l-1.625.543-.568-1.7A1.375,1.375,0,0,0,11.323,2Zm.031,6.112,1.083,3.239L9.2,12.437,8.115,9.2Z" transform="translate(-1.999 -1.999)"/>
</svg>
