<svg xmlns="http://www.w3.org/2000/svg" width="23" height="23" viewBox="0 0 23 23">
  <g id="logout" transform="translate(0 -0.004)">
    <path id="Path_308" data-name="Path 308" d="M14.375,12.462a.958.958,0,0,0-.958.958v3.833a.959.959,0,0,1-.958.958H9.583V3.837A1.932,1.932,0,0,0,8.278,2.015L7.994,1.92h4.464a.959.959,0,0,1,.958.958V5.754a.958.958,0,0,0,1.917,0V2.879A2.879,2.879,0,0,0,12.458,0H2.156a.753.753,0,0,0-.1.021C2.008.021,1.964,0,1.917,0A1.919,1.919,0,0,0,0,1.92V19.17a1.932,1.932,0,0,0,1.305,1.822l5.767,1.923A1.984,1.984,0,0,0,7.667,23a1.919,1.919,0,0,0,1.917-1.917v-.958h2.875a2.879,2.879,0,0,0,2.875-2.875V13.42a.958.958,0,0,0-.958-.958Zm0,0" transform="translate(0)"/>
    <path id="Path_309" data-name="Path 309" d="M287.593,110.78l-3.833-3.833a.958.958,0,0,0-1.636.677V110.5h-3.833a.958.958,0,1,0,0,1.917h3.833v2.875a.958.958,0,0,0,1.636.678l3.833-3.833a.957.957,0,0,0,0-1.355Zm0,0" transform="translate(-264.874 -101.87)"/>
  </g>
</svg>
