<svg id="multiple-users-silhouette" xmlns="http://www.w3.org/2000/svg" width="16.762" height="14.106" viewBox="0 0 16.762 14.106">
  <path id="Path_22" data-name="Path 22" d="M10.115,8.769a3.046,3.046,0,0,1,1.417,2.263,2.457,2.457,0,1,0-1.417-2.263ZM8.5,13.8a2.458,2.458,0,1,0-2.459-2.458A2.458,2.458,0,0,0,8.5,13.8Zm1.043.168H7.461a3.151,3.151,0,0,0-3.148,3.148v2.551l.006.04.176.055a14.327,14.327,0,0,0,4.28.69,8.786,8.786,0,0,0,3.737-.7l.164-.083h.018V17.118A3.15,3.15,0,0,0,9.547,13.97Zm4.067-2.538h-2.07a3.03,3.03,0,0,1-.935,2.11,3.74,3.74,0,0,1,2.671,3.579v.786a8.47,8.47,0,0,0,3.3-.693l.164-.083h.018V14.58A3.151,3.151,0,0,0,13.614,11.432Zm-9.423-.167A2.442,2.442,0,0,0,5.5,10.885a3.042,3.042,0,0,1,1.144-1.94c0-.046.007-.092.007-.138a2.458,2.458,0,1,0-2.458,2.458ZM6.4,13.542a3.031,3.031,0,0,1-.934-2.1c-.077-.006-.153-.012-.231-.012H3.148A3.151,3.151,0,0,0,0,14.58v2.551l.006.039.176.055a14.758,14.758,0,0,0,3.545.666v-.77A3.741,3.741,0,0,1,6.4,13.542Z" transform="translate(0 -6.348)" fill="#2699fb"/>
</svg>
