<svg xmlns="http://www.w3.org/2000/svg" width="17.504" height="19.128" viewBox="0 0 17.504 19.128">
  <g id="needle-with-thread-to-sew-clothes" transform="translate(-11.643 -0.001)">
    <g id="Group_3" data-name="Group 3" transform="translate(11.643 0.001)">
      <path id="Path_14" data-name="Path 14" d="M29.131,11.9c-.055-.16-1.366-3.919-3.174-4.874-.108-.057-.222-.115-.338-.174a8.617,8.617,0,0,0,.362-4.67A2.848,2.848,0,0,0,23.271,0c-1.032.06-1.764.887-1.96,2.211A4.107,4.107,0,0,0,21.3,3.362a7.33,7.33,0,0,0-.456.72L11.748,18.566a.378.378,0,0,0-.067.41l.086.154h.175a.4.4,0,0,0,.315-.2L22.718,5.8a11.186,11.186,0,0,0,2.189,1.36c-.323,1-.752,2.1-1.259,3.3-1.392,3.312-.743,6.047.237,6.671a.3.3,0,1,0,.318-.5c-.69-.44-1.3-2.868-.009-5.942.5-1.183.921-2.265,1.247-3.261l.241.125c1.6.847,2.878,4.507,2.89,4.544a.3.3,0,1,0,.559-.193ZM21.572,5.586l-.583.481.23-.72c.068-.211.195-.585.363-.986a3.7,3.7,0,0,0,.492.784C21.85,5.352,21.662,5.512,21.572,5.586Zm.932-.857A3.017,3.017,0,0,1,21.949,3.6c.286-.511.629-.924.991-.924a.526.526,0,0,1,.286.085.5.5,0,0,1,.243.408C23.5,3.6,23,4.219,22.5,4.729Zm2.58,1.853A10.073,10.073,0,0,1,23.09,5.334,4.181,4.181,0,0,0,24.15,2.9a.959.959,0,0,0-.4-.683,1.059,1.059,0,0,0-.617-.2,1.929,1.929,0,0,0-1.27.677A3.817,3.817,0,0,1,21.9,2.3c.153-1.042.667-1.664,1.409-1.707l.081,0A2.263,2.263,0,0,1,25.41,2.336,7.953,7.953,0,0,1,25.084,6.582Z" transform="translate(-11.643 -0.001)"/>
    </g>
  </g>
</svg>
