<svg xmlns="http://www.w3.org/2000/svg" width="23.06" height="25.2" viewBox="0 0 23.06 25.2">
  <g id="needle-with-thread-to-sew-clothes" transform="translate(-11.643 -0.001)">
    <g id="Group_3" data-name="Group 3" transform="translate(11.643 0.001)">
      <path id="Path_14" data-name="Path 14" d="M34.682,15.679c-.073-.21-1.8-5.162-4.181-6.421-.143-.075-.292-.152-.445-.23a11.352,11.352,0,0,0,.477-6.153A3.753,3.753,0,0,0,26.961.006C25.6.085,24.637,1.175,24.379,2.919a5.41,5.41,0,0,0-.016,1.51,9.656,9.656,0,0,0-.6.949L11.781,24.459a.5.5,0,0,0-.088.54l.113.2h.231a.528.528,0,0,0,.415-.266l13.782-17.3a14.736,14.736,0,0,0,2.883,1.791c-.426,1.317-.99,2.761-1.658,4.349-1.834,4.363-.979,7.966.313,8.789a.39.39,0,1,0,.419-.658c-.909-.579-1.715-3.778-.012-7.828.655-1.558,1.213-2.984,1.643-4.3l.317.164c2.11,1.115,3.792,5.937,3.808,5.986a.39.39,0,1,0,.737-.255Zm-9.958-8.32-.768.634.3-.949c.089-.278.256-.77.478-1.3a4.875,4.875,0,0,0,.648,1.033C25.09,7.051,24.842,7.261,24.724,7.358ZM25.951,6.23a3.975,3.975,0,0,1-.731-1.487c.377-.673.829-1.217,1.306-1.217a.694.694,0,0,1,.376.112.664.664,0,0,1,.32.538C27.258,4.741,26.607,5.557,25.951,6.23Zm3.4,2.441a13.27,13.27,0,0,1-2.627-1.644c.518-.669,1.532-2.135,1.4-3.21a1.263,1.263,0,0,0-.532-.9,1.4,1.4,0,0,0-.812-.264,2.541,2.541,0,0,0-1.673.892,5.028,5.028,0,0,1,.048-.512c.2-1.372.879-2.192,1.857-2.249.035,0,.071,0,.107,0a2.981,2.981,0,0,1,2.666,2.3A10.478,10.478,0,0,1,29.35,8.671Z" transform="translate(-11.643 -0.001)"/>
    </g>
  </g>
</svg>
