<svg xmlns="http://www.w3.org/2000/svg" width="162.469" height="177.544" viewBox="0 0 162.469 177.544">
  <g id="needle-with-thread-to-sew-clothes" transform="translate(-11.643 -0.001)">
    <g id="Group_3" data-name="Group 3" transform="translate(11.643 0.001)">
      <path id="Path_14" data-name="Path 14" d="M173.962,110.455c-.513-1.481-12.676-36.371-29.458-45.242-1.006-.53-2.059-1.07-3.138-1.619,5.039-16.923,6.668-31.074,3.359-43.348C141.5,8.275,130.442-.609,119.567.034c-9.578.56-16.377,8.234-18.191,20.524a38.115,38.115,0,0,0-.111,10.637,68.037,68.037,0,0,0-4.236,6.685L12.614,172.315c-.645,1.022-1.444,2.3-.618,3.8l.8,1.428h1.624c1.425,0,2.188-.956,2.922-1.874L114.441,53.8c6.2,5.253,13.618,9.223,20.313,12.619-3,9.28-6.977,19.455-11.684,30.642-12.921,30.742-6.9,56.124,2.2,61.921a2.747,2.747,0,1,0,2.95-4.634c-6.407-4.08-12.082-26.615-.087-55.155,4.616-10.976,8.549-21.02,11.573-30.27.768.392,1.515.778,2.236,1.156,14.865,7.859,26.713,41.832,26.827,42.171a2.746,2.746,0,1,0,5.19-1.793ZM103.8,51.836,98.393,56.3l2.136-6.685c.63-1.958,1.807-5.427,3.369-9.149a34.345,34.345,0,0,0,4.563,7.275C106.382,49.667,104.632,51.149,103.8,51.836Zm8.649-7.952a28,28,0,0,1-5.15-10.476c2.658-4.741,5.841-8.573,9.2-8.573a4.886,4.886,0,0,1,2.652.791,4.679,4.679,0,0,1,2.253,3.788C121.656,33.395,117.07,39.147,112.45,43.884Zm23.947,17.2c-6.36-3.242-13.055-6.9-18.51-11.583,3.648-4.713,10.792-15.039,9.84-22.616a8.9,8.9,0,0,0-3.748-6.34,9.831,9.831,0,0,0-5.723-1.861c-4.241,0-8.331,2.809-11.784,6.283a35.427,35.427,0,0,1,.335-3.607C108.233,11.69,113,5.914,119.89,5.511c.245-.014.5-.024.751-.024,7.214,0,16,5.884,18.784,16.183C142.378,32.64,140.936,45.55,136.4,61.083Z" transform="translate(-11.643 -0.001)"/>
    </g>
  </g>
</svg>
