<svg xmlns="http://www.w3.org/2000/svg" width="26" height="28.412" viewBox="0 0 26 28.412">
  <g id="needle-with-thread-to-sew-clothes" transform="translate(-11.643 -0.001)">
    <g id="Group_3" data-name="Group 3" transform="translate(11.643 0.001)">
      <path id="Path_14" data-name="Path 14" d="M37.619,17.677c-.082-.237-2.028-5.82-4.714-7.24-.161-.085-.329-.171-.5-.259a12.8,12.8,0,0,0,.538-6.937A4.231,4.231,0,0,0,28.914.007C27.381.1,26.293,1.324,26,3.291a6.1,6.1,0,0,0-.018,1.7,10.889,10.889,0,0,0-.678,1.07L11.8,27.576a.562.562,0,0,0-.1.608l.127.229h.26a.6.6,0,0,0,.468-.3L28.094,8.61a16.615,16.615,0,0,0,3.251,2.019c-.48,1.485-1.116,3.113-1.87,4.9-2.068,4.92-1.1,8.982.352,9.909A.44.44,0,1,0,30.3,24.7c-1.025-.653-1.934-4.259-.014-8.826.739-1.756,1.368-3.364,1.852-4.844l.358.185c2.379,1.258,4.275,6.694,4.293,6.749a.439.439,0,1,0,.831-.287ZM26.391,8.3l-.865.715.342-1.07c.1-.313.289-.869.539-1.464a5.5,5.5,0,0,0,.73,1.164C26.8,7.949,26.524,8.186,26.391,8.3Zm1.384-1.273a4.481,4.481,0,0,1-.824-1.676c.425-.759.935-1.372,1.472-1.372a.782.782,0,0,1,.424.127.749.749,0,0,1,.361.606C29.248,5.345,28.514,6.266,27.775,7.024Zm3.832,2.752a14.962,14.962,0,0,1-2.962-1.854c.584-.754,1.727-2.407,1.575-3.619a1.425,1.425,0,0,0-.6-1.015,1.573,1.573,0,0,0-.916-.3A2.865,2.865,0,0,0,26.819,4a5.669,5.669,0,0,1,.054-.577C27.1,1.872,27.864.947,28.966.883c.039,0,.08,0,.12,0a3.361,3.361,0,0,1,3.006,2.59A11.814,11.814,0,0,1,31.607,9.776Z" transform="translate(-11.643 -0.001)" fill="#fff"/>
    </g>
  </g>
</svg>
