<svg xmlns="http://www.w3.org/2000/svg" width="30.757" height="36.91" viewBox="0 0 30.757 36.91">
  <g id="needle-with-thread-to-sew-clothes" transform="translate(36.527 86.823)">
    <g id="Group_3" data-name="Group 3" transform="translate(-36.527 -86.823)">
      <path id="Path_14" data-name="Path 14" d="M42.372,22.964c-.1-.308-2.4-7.561-5.577-9.405-.19-.11-.39-.222-.594-.337.954-3.518,1.262-6.46.636-9.012-.611-2.489-2.7-4.336-4.762-4.2-1.813.116-3.1,1.712-3.444,4.267a8.694,8.694,0,0,0-.021,2.211,14.424,14.424,0,0,0-.8,1.39L11.827,35.824a.786.786,0,0,0-.117.79l.151.3h.308c.27,0,.414-.2.553-.39L31.1,11.185a19.46,19.46,0,0,0,3.846,2.623c-.568,1.929-1.321,4.045-2.212,6.37-2.446,6.391-1.306,11.668.417,12.873a.482.482,0,0,0,.279.089.51.51,0,0,0,.439-.265.605.605,0,0,0-.16-.788c-1.213-.848-2.287-5.533-.017-11.466.874-2.282,1.618-4.37,2.191-6.293q.218.122.423.24c2.814,1.634,5.057,8.7,5.079,8.767a.511.511,0,0,0,.661.354A.59.59,0,0,0,42.372,22.964ZM29.089,10.777l-1.024.929.4-1.39c.119-.407.342-1.128.638-1.9a7.278,7.278,0,0,0,.864,1.512C29.578,10.326,29.247,10.635,29.089,10.777Zm1.637-1.653a6.068,6.068,0,0,1-.975-2.178c.5-.986,1.106-1.782,1.742-1.782a.866.866,0,0,1,.5.164.992.992,0,0,1,.427.788C32.47,6.943,31.6,8.139,30.727,9.124ZM35.26,12.7a17.543,17.543,0,0,1-3.5-2.408c.691-.98,2.043-3.127,1.863-4.7a1.89,1.89,0,0,0-.71-1.318,1.751,1.751,0,0,0-1.083-.387A3.306,3.306,0,0,0,29.6,5.191c.01-.243.028-.491.063-.75.27-2.01,1.173-3.211,2.476-3.295.046,0,.094,0,.142,0a4.093,4.093,0,0,1,3.556,3.364C36.392,6.787,36.12,9.471,35.26,12.7Z" transform="translate(-11.643 -0.001)" fill="#fff"/>
    </g>
  </g>
</svg>
