<svg id="needle-with-thread-to-sew-clothes" xmlns="http://www.w3.org/2000/svg" width="82.782" height="101.9" viewBox="0 0 82.782 101.9">
  <g id="Group_3" data-name="Group 3">
    <path id="Path_14" data-name="Path 14" d="M94.348,63.4c-.261-.85-6.458-20.875-15.01-25.966-.513-.3-1.049-.614-1.6-.929,2.568-9.713,3.4-17.835,1.711-24.879C77.808,4.75,72.174-.349,66.633.02c-4.88.321-8.344,4.726-9.269,11.78a24.615,24.615,0,0,0-.056,6.105,40.1,40.1,0,0,0-2.158,3.837L12.138,98.9a2.213,2.213,0,0,0-.315,2.182l.405.82h.828c.726,0,1.115-.548,1.489-1.076L64.021,30.877a52.336,52.336,0,0,0,10.35,7.242c-1.529,5.326-3.555,11.166-5.953,17.587C61.835,73.351,64.9,87.919,69.54,91.246a1.275,1.275,0,0,0,.752.246,1.368,1.368,0,0,0,1.182-.731,1.7,1.7,0,0,0-.43-2.175C67.779,86.244,64.887,73.31,71,56.93c2.352-6.3,4.356-12.064,5.9-17.373q.587.337,1.139.664c7.574,4.51,13.611,24.009,13.669,24.2a1.369,1.369,0,0,0,1.78.978A1.642,1.642,0,0,0,94.348,63.4ZM58.6,29.752l-2.756,2.565,1.088-3.837c.321-1.124.921-3.115,1.716-5.251A20.231,20.231,0,0,0,60.974,27.4C59.915,28.507,59.023,29.357,58.6,29.752Zm4.407-4.564a16.964,16.964,0,0,1-2.624-6.013c1.355-2.721,2.976-4.92,4.687-4.92a2.293,2.293,0,0,1,1.351.454,2.757,2.757,0,0,1,1.148,2.174C67.7,19.167,65.361,22.469,63.007,25.188Zm12.2,9.871a47.194,47.194,0,0,1-9.431-6.648c1.859-2.705,5.5-8.632,5.014-12.98a5.256,5.256,0,0,0-1.91-3.639,4.64,4.64,0,0,0-2.916-1.068c-2.161,0-4.245,1.612-6,3.606.027-.67.077-1.355.171-2.07.726-5.549,3.157-8.864,6.665-9.1.125-.008.254-.014.383-.014,3.676,0,8.155,3.377,9.571,9.288C78.256,18.734,77.521,26.144,75.208,35.059Z" transform="translate(-11.643 -0.001)"/>
  </g>
</svg>
