<svg xmlns="http://www.w3.org/2000/svg" width="17.191" height="15.348" viewBox="0 0 17.191 15.348">
  <g id="reply" transform="translate(0 -27.417)">
    <path id="Path_23" data-name="Path 23" d="M16.682,34.353q-1.554-3.866-8.394-3.866H6.14V28.031A.611.611,0,0,0,5.094,27.6L.182,32.511a.6.6,0,0,0,0,.863l4.912,4.912a.614.614,0,0,0,1.046-.432V35.4H8.288q.94,0,1.683.057a12.138,12.138,0,0,1,1.477.206,5.483,5.483,0,0,1,1.276.408,4.517,4.517,0,0,1,1.012.667,3.342,3.342,0,0,1,.768.969,5.221,5.221,0,0,1,.465,1.329,8.171,8.171,0,0,1,.168,1.736q0,.527-.048,1.18a1.965,1.965,0,0,1-.024.225,1.975,1.975,0,0,0-.024.254.358.358,0,0,0,.081.24.281.281,0,0,0,.226.1.328.328,0,0,0,.269-.163,1.1,1.1,0,0,0,.125-.211q.058-.125.129-.288c.048-.109.082-.185.1-.23a11.518,11.518,0,0,0,1.218-4.326A8.734,8.734,0,0,0,16.682,34.353Z" transform="translate(0)" fill="rgba(0,0,0,0.67)"/>
  </g>
</svg>
