<svg xmlns="http://www.w3.org/2000/svg" width="26" height="25.736" viewBox="0 0 26 25.736">
  <g id="settings-gears" transform="translate(-0.001 -4.737)">
    <path id="Path_298" data-name="Path 298" d="M1.708,14.131a6.33,6.33,0,0,0,.566,1.344l-.683.862a.707.707,0,0,0,.053.937l1.177,1.177a.7.7,0,0,0,.937.053l.856-.678a6.221,6.221,0,0,0,1.4.591l.128,1.1a.706.706,0,0,0,.7.625H8.505a.706.706,0,0,0,.7-.625l.123-1.063a6.293,6.293,0,0,0,1.5-.605l.828.655a.707.707,0,0,0,.937-.053l1.177-1.177a.7.7,0,0,0,.053-.937l-.644-.817a6.147,6.147,0,0,0,.616-1.473l.993-.114a.706.706,0,0,0,.625-.7V11.57a.706.706,0,0,0-.625-.7l-.979-.114A6.186,6.186,0,0,0,13.216,9.3l.6-.761a.707.707,0,0,0-.053-.937L12.591,6.427a.7.7,0,0,0-.937-.053l-.739.586a6.207,6.207,0,0,0-1.531-.642l-.112-.957a.706.706,0,0,0-.7-.625H6.907a.706.706,0,0,0-.7.625L6.1,6.318a6.182,6.182,0,0,0-1.57.664l-.767-.608a.707.707,0,0,0-.937.053L1.644,7.6a.7.7,0,0,0-.053.937l.642.812a6.067,6.067,0,0,0-.58,1.47L.626,10.94a.706.706,0,0,0-.625.7v1.665a.706.706,0,0,0,.625.7Zm6.033-4.5a2.753,2.753,0,1,1-2.753,2.753A2.757,2.757,0,0,1,7.741,9.626Z" fill="#2699fb"/>
    <path id="Path_299" data-name="Path 299" d="M488.792,289.669l-.879-.742a.7.7,0,0,0-.926.025l-.485.455a5.016,5.016,0,0,0-1.294-.418l-.137-.669a.7.7,0,0,0-.742-.558l-1.146.1a.7.7,0,0,0-.639.672l-.022.681a5.03,5.03,0,0,0-1.236.65l-.58-.385a.7.7,0,0,0-.918.131l-.742.884a.7.7,0,0,0,.025.926l.508.541a5.2,5.2,0,0,0-.374,1.238l-.725.148a.7.7,0,0,0-.558.742l.1,1.146a.7.7,0,0,0,.672.639l.784.025a5.122,5.122,0,0,0,.555,1.06l-.438.661a.7.7,0,0,0,.131.918l.879.742a.7.7,0,0,0,.926-.025l.575-.538a5.037,5.037,0,0,0,1.18.385l.159.787a.7.7,0,0,0,.742.558l1.146-.1a.7.7,0,0,0,.639-.672l.025-.77a5.156,5.156,0,0,0,1.18-.6l.633.418a.7.7,0,0,0,.918-.131l.742-.879a.7.7,0,0,0-.025-.926l-.51-.541a5.023,5.023,0,0,0,.4-1.244l.7-.142a.7.7,0,0,0,.558-.742l-.1-1.146a.7.7,0,0,0-.672-.639l-.7-.022a5.064,5.064,0,0,0-.583-1.149l.382-.575A.693.693,0,0,0,488.792,289.669Zm-4.32,6.627a2.253,2.253,0,1,1,2.056-2.435A2.254,2.254,0,0,1,484.472,296.3Z" transform="translate(-464.59 -275.128)" fill="#2699fb"/>
    <path id="Path_300" data-name="Path 300" d="M182.93,562.8a.7.7,0,0,0-.625.686l-.008.706a.7.7,0,0,0,.608.7l.519.067a4.024,4.024,0,0,0,.368.9l-.335.413a.7.7,0,0,0,.042.926l.494.5a.7.7,0,0,0,.926.064l.416-.321a4.073,4.073,0,0,0,.926.4l.056.536a.7.7,0,0,0,.686.625l.706.008a.7.7,0,0,0,.7-.608l.064-.508a4.191,4.191,0,0,0,1-.39l.39.315a.7.7,0,0,0,.926-.042l.5-.494a.7.7,0,0,0,.064-.926l-.3-.388a4.045,4.045,0,0,0,.424-.976l.463-.047a.7.7,0,0,0,.625-.686l.008-.706a.7.7,0,0,0-.608-.7l-.452-.059a4.2,4.2,0,0,0-.382-.976l.282-.346a.7.7,0,0,0-.042-.926l-.494-.5a.7.7,0,0,0-.926-.064l-.338.259a4.1,4.1,0,0,0-1.015-.441l-.045-.438a.7.7,0,0,0-.686-.625l-.706-.008a.7.7,0,0,0-.7.608l-.056.435a4.214,4.214,0,0,0-1.051.43l-.349-.285a.7.7,0,0,0-.926.042l-.508.5a.7.7,0,0,0-.064.926l.3.385a4.08,4.08,0,0,0-.4.976Zm4.555-.8a1.835,1.835,0,1,1-1.858,1.813A1.837,1.837,0,0,1,187.485,562Z" transform="translate(-177.211 -538.545)" fill="#2699fb"/>
  </g>
</svg>
