<svg id="share" xmlns="http://www.w3.org/2000/svg" width="17.25" height="18.299" viewBox="0 0 17.25 18.299">
  <path id="Path_21" data-name="Path 21" d="M27.775,11.756a3.275,3.275,0,0,0-2.591,1.277l-5.027-2.808a3.282,3.282,0,0,0,.182-1.079,3.211,3.211,0,0,0-.186-1.083l5.023-2.8A3.268,3.268,0,1,0,24.5,3.272a3.194,3.194,0,0,0,.186,1.083l-5.019,2.8a3.268,3.268,0,1,0,.008,3.971L24.7,13.937a3.27,3.27,0,1,0,3.078-2.181Zm0-10.726A2.246,2.246,0,1,1,25.53,3.275,2.248,2.248,0,0,1,27.775,1.03Zm-10.7,10.362a2.246,2.246,0,1,1,2.246-2.246A2.248,2.248,0,0,1,17.075,11.391Zm10.7,5.878a2.246,2.246,0,1,1,2.246-2.246A2.248,2.248,0,0,1,27.775,17.269Z" transform="translate(-13.8)"/>
</svg>
