<svg xmlns="http://www.w3.org/2000/svg" width="16.704" height="18.097" viewBox="0 0 16.704 18.097">
  <g id="thumbs-up" transform="translate(0)">
    <path id="Path_20" data-name="Path 20" d="M34.454,10.114a3.144,3.144,0,0,0,.533-1.773A2.822,2.822,0,0,0,32.2,5.568H30.289a4.775,4.775,0,0,0,.522-2.088,4.512,4.512,0,0,0-.381-2.023,2.39,2.39,0,0,0-1.109-1.1A3.715,3.715,0,0,0,27.679,0,1.38,1.38,0,0,0,26.7.4a2.615,2.615,0,0,0-.674,1.175q-.207.718-.332,1.376a1.846,1.846,0,0,1-.386.93q-.533.576-1.164,1.392a9.619,9.619,0,0,1-1.49,1.686h-2.98a1.392,1.392,0,0,0-1.392,1.392v6.96A1.393,1.393,0,0,0,19.675,16.7h3.132a8.042,8.042,0,0,1,1.5.435q1.338.468,2.354.712a8.776,8.776,0,0,0,2.061.245h1.4a3.466,3.466,0,0,0,2.469-.876,3.08,3.08,0,0,0,.924-2.387,3.061,3.061,0,0,0,.652-1.936,3.289,3.289,0,0,0-.033-.468,3.123,3.123,0,0,0,.413-1.566A2.84,2.84,0,0,0,34.454,10.114ZM20.86,15.106a.683.683,0,1,1,.207-.489A.669.669,0,0,1,20.86,15.106Zm12.5-5.872q-.234.5-.582.511a1.469,1.469,0,0,1,.272.517,1.955,1.955,0,0,1,.108.6,1.719,1.719,0,0,1-.576,1.294,1.5,1.5,0,0,1,.2.75,1.832,1.832,0,0,1-.19.8,1.212,1.212,0,0,1-.516.571,3.719,3.719,0,0,1,.054.609q0,1.816-2.088,1.816H28.724A12.015,12.015,0,0,1,25,15.911q-.054-.022-.315-.114l-.386-.136q-.125-.044-.381-.125t-.413-.12q-.158-.038-.359-.071a2.192,2.192,0,0,0-.343-.033h-.348V8.353h.348a.935.935,0,0,0,.386-.1,1.838,1.838,0,0,0,.435-.294q.223-.2.419-.386a6.187,6.187,0,0,0,.435-.478q.239-.288.375-.462t.343-.446q.207-.272.25-.326.6-.739.837-.99a2.762,2.762,0,0,0,.647-1.191q.2-.723.332-1.365a1.8,1.8,0,0,1,.414-.924,1.582,1.582,0,0,1,1.392.511,2.84,2.84,0,0,1,.348,1.577A4.442,4.442,0,0,1,28.9,5.226a4.436,4.436,0,0,0-.522,1.735H32.2A1.442,1.442,0,0,1,33.6,8.353,2.137,2.137,0,0,1,33.362,9.234Z" transform="translate(-18.283)"/>
  </g>
</svg>
